<svg width="24" height="24" viewBox="0 0 24 24" fill="none" xmlns="http://www.w3.org/2000/svg">
<g clip-path="url(#clip0_560_191158)">
<path d="M5.31891 14.5027L4.4835 17.6213L1.43011 17.6859C0.517594 15.9934 0 14.057 0 11.9992C0 10.0093 0.483938 8.13277 1.34175 6.48047H1.34241L4.06078 6.97884L5.25159 9.68091C5.00236 10.4075 4.86652 11.1875 4.86652 11.9992C4.86661 12.88 5.02617 13.724 5.31891 14.5027Z" fill="#FBBB00"/>
<path d="M23.7903 9.75781C23.9281 10.4837 24 11.2334 24 11.9996C24 12.8587 23.9097 13.6967 23.7376 14.5051C23.1534 17.2558 21.627 19.6578 19.5125 21.3576L19.5119 21.3569L16.088 21.1822L15.6034 18.1572C17.0064 17.3343 18.1029 16.0466 18.6805 14.5051H12.2638V9.75781H18.7741H23.7903Z" fill="#518EF8"/>
<path d="M19.5118 21.3577L19.5125 21.3584C17.456 23.0113 14.8437 24.0004 11.9999 24.0004C7.43005 24.0004 3.45688 21.4461 1.43005 17.6872L5.31885 14.5039C6.33224 17.2085 8.94126 19.1338 11.9999 19.1338C13.3146 19.1338 14.5463 18.7784 15.6032 18.158L19.5118 21.3577Z" fill="#28B446"/>
<path d="M19.6596 2.76262L15.7721 5.94525C14.6783 5.26153 13.3853 4.86656 12 4.86656C8.87213 4.86656 6.21431 6.88017 5.25169 9.68175L1.34245 6.48131H1.3418C3.33895 2.63077 7.36223 0 12 0C14.9117 0 17.5814 1.03716 19.6596 2.76262Z" fill="#F14336"/>
</g>
<defs>
<clipPath id="clip0_560_191158">
<rect width="24" height="24" fill="white"/>
</clipPath>
</defs>
</svg>
