<svg width="40" height="40" viewBox="0 0 40 40" fill="none" xmlns="http://www.w3.org/2000/svg">
<path d="M4 12C4 5.37258 9.37258 0 16 0H24C30.6274 0 36 5.37258 36 12V20C36 26.6274 30.6274 32 24 32H16C9.37258 32 4 26.6274 4 20V12Z" fill="#29AAE1"/>
<mask id="mask0_126_13981" style="mask-type:luminance" maskUnits="userSpaceOnUse" x="0" y="0" width="40" height="40">
<path fill-rule="evenodd" clip-rule="evenodd" d="M16 0H0V40H40V0H24C30.6274 0 36 5.37258 36 12V20C36 26.6274 30.6274 32 24 32H16C9.37258 32 4 26.6274 4 20V12C4 5.37258 9.37258 0 16 0Z" fill="white"/>
</mask>
<g mask="url(#mask0_126_13981)">
<g style="mix-blend-mode:multiply" opacity="0.5" filter="url(#filter0_f_126_13981)">
<path d="M6 16C6 9.37258 11.3726 4 18 4H22C28.6274 4 34 9.37258 34 16V20C34 26.6274 28.6274 32 22 32H18C11.3726 32 6 26.6274 6 20V16Z" fill="#36AFE3"/>
</g>
<g style="mix-blend-mode:multiply" opacity="0.5" filter="url(#filter1_f_126_13981)">
<path d="M6 18C6 11.3726 11.3726 6 18 6H22C28.6274 6 34 11.3726 34 18V22C34 28.6274 28.6274 34 22 34H18C11.3726 34 6 28.6274 6 22V18Z" fill="#36AFE3"/>
</g>
</g>
<g clip-path="url(#clip0_126_13981)">
<mask id="mask1_126_13981" style="mask-type:alpha" maskUnits="userSpaceOnUse" x="4" y="0" width="32" height="32">
<rect x="4" width="32" height="32" fill="url(#paint0_linear_126_13981)"/>
</mask>
<g mask="url(#mask1_126_13981)">
<rect width="32" height="32" transform="translate(4)" fill="#36AFE3"/>
</g>
</g>
<g clip-path="url(#clip1_126_13981)">
<mask id="mask2_126_13981" style="mask-type:luminance" maskUnits="userSpaceOnUse" x="19" y="16" width="9" height="8">
<path d="M21.8873 22.6774C23.2099 24 25.3547 24 26.6774 22.6774C28 21.3547 28 19.2099 26.6774 17.8873C25.3547 16.5646 23.2099 16.5646 21.8873 17.8873C21.7849 17.9896 21.6905 18.0964 21.6039 18.2078C21.1292 18.8185 20.5466 19.2673 19.8819 19.5406C19.8864 19.6103 19.8932 19.68 19.9022 19.7498C19.9247 19.9263 19.9359 20.1029 19.9359 20.2806C19.9359 20.5314 19.9134 20.7777 19.8718 21.0173C20.541 21.2906 21.127 21.7405 21.6039 22.3546C21.6905 22.4659 21.7849 22.5728 21.8873 22.6751" fill="white"/>
</mask>
<g mask="url(#mask2_126_13981)">
<path d="M28 16.5646H19.8718V24H28V16.5646Z" fill="white"/>
</g>
<path fill-rule="evenodd" clip-rule="evenodd" d="M24.2817 8.33066C22.4114 8.33066 20.8953 9.84676 20.8953 11.7171C20.8953 11.8622 20.9043 12.0039 20.9223 12.1445C21.0921 13.493 20.6703 14.7257 19.7087 15.6862L19.6873 15.7076C18.7257 16.6692 17.4942 17.091 16.1456 16.9211C16.0062 16.9031 15.8633 16.8941 15.7183 16.8941C13.8479 16.8941 12.3318 18.4102 12.3318 20.2806C12.3318 22.151 13.8479 23.6671 15.7183 23.6671C17.5886 23.6671 19.1047 22.151 19.1047 20.2806C19.1047 20.1355 19.0957 19.9927 19.0777 19.8532C18.9079 18.5047 19.3297 17.272 20.2913 16.3115L20.3127 16.2902C21.2743 15.3285 22.5058 14.9068 23.8544 15.0766C23.9938 15.0946 24.1367 15.1036 24.2817 15.1036C26.1521 15.1036 27.6682 13.5875 27.6682 11.7171C27.6682 9.84676 26.1521 8.33066 24.2817 8.33066Z" fill="white"/>
<mask id="mask3_126_13981" style="mask-type:luminance" maskUnits="userSpaceOnUse" x="12" y="8" width="9" height="8">
<path d="M18.1127 14.1127C16.79 15.4354 14.6452 15.4354 13.3226 14.1127C11.9999 12.7901 11.9999 10.6453 13.3226 9.32264C14.6452 8 16.79 8 18.1127 9.32264C18.215 9.42499 18.3095 9.53184 18.3961 9.64318C18.8707 10.2539 19.4533 10.7027 20.118 10.976C20.1135 11.0457 20.1068 11.1154 20.0978 11.1851C20.0753 11.3617 20.064 11.5383 20.064 11.716C20.064 11.9668 20.0865 12.2131 20.1281 12.4527C19.4589 12.726 18.873 13.1759 18.3961 13.79C18.3095 13.9013 18.215 14.0082 18.1127 14.1105" fill="white"/>
</mask>
<g mask="url(#mask3_126_13981)">
<path d="M20.1282 8H12V15.4354H20.1282V8Z" fill="white"/>
</g>
</g>
<defs>
<filter id="filter0_f_126_13981" x="2" y="0" width="36" height="36" filterUnits="userSpaceOnUse" color-interpolation-filters="sRGB">
<feFlood flood-opacity="0" result="BackgroundImageFix"/>
<feBlend mode="normal" in="SourceGraphic" in2="BackgroundImageFix" result="shape"/>
<feGaussianBlur stdDeviation="2" result="effect1_foregroundBlur_126_13981"/>
</filter>
<filter id="filter1_f_126_13981" x="0" y="0" width="40" height="40" filterUnits="userSpaceOnUse" color-interpolation-filters="sRGB">
<feFlood flood-opacity="0" result="BackgroundImageFix"/>
<feBlend mode="normal" in="SourceGraphic" in2="BackgroundImageFix" result="shape"/>
<feGaussianBlur stdDeviation="3" result="effect1_foregroundBlur_126_13981"/>
</filter>
<linearGradient id="paint0_linear_126_13981" x1="20" y1="0" x2="20" y2="32" gradientUnits="userSpaceOnUse">
<stop/>
<stop offset="1" stop-opacity="0"/>
</linearGradient>
<clipPath id="clip0_126_13981">
<path d="M4 12C4 5.37258 9.37258 0 16 0H24C30.6274 0 36 5.37258 36 12V20C36 26.6274 30.6274 32 24 32H16C9.37258 32 4 26.6274 4 20V12Z" fill="white"/>
</clipPath>
<clipPath id="clip1_126_13981">
<rect width="16" height="16" fill="white" transform="translate(12 8)"/>
</clipPath>
</defs>
</svg>
